<svg xmlns="http://www.w3.org/2000/svg" viewBox="0 0 400 420" width="400" height="420">
  <!-- خلفية -->
  <rect width="400" height="420" fill="#0a0a0f" rx="20"/>
  <defs>
    <linearGradient id="g1" x1="0%" y1="0%" x2="100%" y2="100%">
      <stop offset="0%" stop-color="#00e5ff"/>
      <stop offset="45%" stop-color="#9c27b0"/>
      <stop offset="100%" stop-color="#e91e8c"/>
    </linearGradient>
    <linearGradient id="g2" x1="0%" y1="0%" x2="100%" y2="100%">
      <stop offset="0%" stop-color="#00e5ff" stop-opacity="0.5"/>
      <stop offset="100%" stop-color="#9c27b0" stop-opacity="0.5"/>
    </linearGradient>
  </defs>

  <!-- فقاعة الدردشة الرئيسية -->
  <path d="M200 55 C120 55 55 115 55 180 C55 220 75 255 105 275 L80 330 L145 290 C160 297 180 300 200 300 C280 300 345 245 345 180 C345 115 280 55 200 55 Z" fill="url(#g1)"/>

  <!-- القلب الخارجي الكبير -->
  <path d="M200 255 C200 255 120 200 120 157 C120 130 143 112 167 112 C183 112 196 122 200 135 C204 122 217 112 233 112 C257 112 280 130 280 157 C280 200 200 255 200 255 Z" fill="none" stroke="#1a1535" stroke-width="10" stroke-linejoin="round" stroke-linecap="round"/>

  <!-- القلب الخارجي تعبئة شفافة -->
  <path d="M200 248 C200 248 127 196 127 158 C127 134 147 118 168 118 C183 118 194 127 200 138 C206 127 217 118 232 118 C253 118 273 134 273 158 C273 196 200 248 200 248 Z" fill="url(#g2)"/>

  <!-- القلب الداخلي الصغير -->
  <path d="M200 215 C200 215 162 188 162 170 C162 158 174 150 186 150 C193 150 197 155 200 160 C203 155 207 150 214 150 C226 150 238 158 238 170 C238 188 200 215 200 215 Z" fill="#1a1535"/>

  <!-- نجمة 1 - أعلى يسار كبيرة -->
  <g fill="white">
    <rect x="88" y="62" width="3.5" height="18" rx="1.8"/>
    <rect x="80" y="69.5" width="18" height="3.5" rx="1.8"/>
  </g>

  <!-- نجمة 2 - أعلى يسار صغيرة -->
  <g fill="white" opacity="0.6">
    <rect x="118" y="42" width="2.5" height="12" rx="1.2"/>
    <rect x="113" y="46.5" width="12" height="2.5" rx="1.2"/>
  </g>

  <!-- نجمة 3 - يمين فوق -->
  <g fill="white" opacity="0.85">
    <rect x="318" y="95" width="3" height="15" rx="1.5"/>
    <rect x="312" y="101" width="15" height="3" rx="1.5"/>
  </g>

  <!-- نجمة 4 - يمين وسط صغيرة -->
  <g fill="white" opacity="0.5">
    <rect x="340" y="185" width="2" height="10" rx="1"/>
    <rect x="336" y="189" width="10" height="2" rx="1"/>
  </g>

  <!-- نجمة 5 - أسفل يمين -->
  <g fill="white" opacity="0.7">
    <rect x="305" y="265" width="2.5" height="12" rx="1.2"/>
    <rect x="300" y="269.5" width="12" height="2.5" rx="1.2"/>
  </g>

  <!-- نجمة 6 - يسار وسط -->
  <g fill="white" opacity="0.55">
    <rect x="48" y="195" width="2" height="10" rx="1"/>
    <rect x="44" y="199" width="10" height="2" rx="1"/>
  </g>

  <!-- JEERANI -->
  <text x="200" y="385" text-anchor="middle" font-family="'Poppins','Arial Black',sans-serif" font-size="52" font-weight="800" fill="white" letter-spacing="8">JEERANI</text>
</svg>
